<svg xmlns="http://www.w3.org/2000/svg" viewBox="0 0 320 220"><defs><linearGradient id="g" x1="0" y1="0" x2="1" y2="1"><stop stop-color="#0b1e33"/><stop offset="1" stop-color="#16466f"/></linearGradient><filter id="gl"><feGaussianBlur stdDeviation="4"/></filter></defs><rect width="320" height="220" rx="24" fill="url(#g)"/><circle cx="160" cy="110" r="76" fill="#38a5ff" opacity=".14" filter="url(#gl)"/><path d="M118 36h84c13 0 23 10 23 23v102c0 13-10 23-23 23h-84c-13 0-23-10-23-23V59c0-13 10-23 23-23Z" fill="#081522" stroke="#7fc8ff" stroke-width="4"/><rect x="105" y="50" width="110" height="116" rx="12" fill="#0d2d48"/><path d="M132 73h56M132 89h40M132 120l21-21 17 17 25-29" fill="none" stroke="#4ab4ff" stroke-width="5" stroke-linecap="round" stroke-linejoin="round"/><circle cx="160" cy="176" r="5" fill="#8ed4ff"/><path d="M38 67h40M242 67h40M38 153h40M242 153h40" stroke="#2b81c3" stroke-width="3" opacity=".75"/></svg>